RobotoSerifTextWide-SuperWidth1400.ufo
<glyph name="quotesingle" format="2">
  <advance width="308.14"/>
  <unicode hex="0027"/>
  <outline>
    <contour>
      <point x="254.5" y="710.0" type="line"/>
      <point x="254.5" y="616.864"/>
      <point x="223.64000000000001" y="586.856"/>
      <point x="223.64000000000001" y="446.712" type="curve"/>
      <point x="84.50000000000001" y="446.712" type="line"/>
      <point x="84.50000000000001" y="586.856"/>
      <point x="53.63999999999999" y="615.864"/>
      <point x="53.63999999999999" y="710.0" type="curve"/>
    </contour>
  </outline>
</glyph>
<glyph name="less" format="2">
  <advance width="665.8399999999999"/>
  <unicode hex="003C"/>
  <outline>
    <contour>
      <point x="563.6399999999999" y="585.1039999999999" type="line"/>
      <point x="102.2" y="408.616" type="line"/>
      <point x="102.2" y="336.84" type="line"/>
      <point x="126.97999999999999" y="290.384" type="line"/>
      <point x="563.6399999999999" y="452.03999999999996" type="line"/>
    </contour>
    <contour>
      <point x="563.6399999999999" y="247.792" type="line"/>
      <point x="128.52" y="408.616" type="line"/>
      <point x="102.2" y="354.84" type="line"/>
      <point x="102.2" y="281.384" type="line"/>
      <point x="563.6399999999999" y="104.896" type="line"/>
    </contour>
  </outline>
</glyph>
<glyph name="H" format="2">
  <advance width="977.5200000000002"/>
  <unicode hex="0048"/>
  <anchor x="495.84000000000003" y="741.0" name="top"/>
  <anchor x="495.84000000000003" y="0.0" name="bottom"/>
  <outline>
    <contour>
      <point x="202.4" y="409.144" type="line"/>
      <point x="202.4" y="322.024" type="line"/>
      <point x="714.4" y="322.024" type="line"/>
      <point x="714.4" y="409.144" type="line"/>
    </contour>
    <contour>
      <point x="26.319999999999993" y="0.0" type="line"/>
      <point x="459.9" y="0.0" type="line"/>
      <point x="459.9" y="76.11999999999999" type="line"/>
      <point x="450.82" y="76.11999999999999" type="line" smooth="yes"/>
      <point x="427.04" y="76.11999999999999"/>
      <point x="398.18000000000006" y="79.11999999999999"/>
      <point x="398.18000000000006" y="86.11999999999999" type="curve" smooth="yes"/>
      <point x="398.18000000000006" y="623.88" type="line" smooth="yes"/>
      <point x="398.18000000000006" y="630.88"/>
      <point x="427.04" y="633.88"/>
      <point x="450.82" y="633.88" type="curve" smooth="yes"/>
      <point x="459.9" y="633.88" type="line"/>
      <point x="459.9" y="710.0" type="line"/>
      <point x="26.319999999999993" y="710.0" type="line"/>
      <point x="26.319999999999993" y="633.88" type="line"/>
      <point x="37.94" y="633.88" type="line" smooth="yes"/>
      <point x="67.8" y="633.88"/>
      <point x="89.03999999999999" y="626.88"/>
      <point x="89.03999999999999" y="597.88" type="curve" smooth="yes"/>
      <point x="89.03999999999999" y="112.11999999999999" type="line" smooth="yes"/>
      <point x="89.03999999999999" y="83.11999999999999"/>
      <point x="67.8" y="76.11999999999999"/>
      <point x="37.94" y="76.11999999999999" type="curve" smooth="yes"/>
      <point x="26.319999999999993" y="76.11999999999999" type="line"/>
    </contour>
    <contour>
      <point x="517.08" y="0.0" type="line"/>
      <point x="951.1999999999999" y="0.0" type="line"/>
      <point x="951.1999999999999" y="76.11999999999999" type="line"/>
      <point x="939.0399999999998" y="76.11999999999999" type="line" smooth="yes"/>
      <point x="909.7200000000003" y="76.11999999999999"/>
      <point x="887.9399999999999" y="83.11999999999999"/>
      <point x="887.9399999999999" y="112.11999999999999" type="curve" smooth="yes"/>
      <point x="887.9399999999999" y="597.88" type="line" smooth="yes"/>
      <point x="887.9399999999999" y="626.88"/>
      <point x="909.7200000000003" y="633.88"/>
      <point x="939.0399999999998" y="633.88" type="curve" smooth="yes"/>
      <point x="951.1999999999999" y="633.88" type="line"/>
      <point x="951.1999999999999" y="710.0" type="line"/>
      <point x="517.08" y="710.0" type="line"/>
      <point x="517.08" y="633.88" type="line"/>
      <point x="526.7" y="633.88" type="line" smooth="yes"/>
      <point x="550.48" y="633.88"/>
      <point x="578.8000000000001" y="630.88"/>
      <point x="578.8000000000001" y="623.88" type="curve" smooth="yes"/>
      <point x="578.8000000000001" y="86.11999999999999" type="line" smooth="yes"/>
      <point x="578.8000000000001" y="79.11999999999999"/>
      <point x="550.48" y="76.11999999999999"/>
      <point x="526.7" y="76.11999999999999" type="curve" smooth="yes"/>
      <point x="517.08" y="76.11999999999999" type="line"/>
    </contour>
  </outline>
</glyph>
<glyph name="M" format="2">
  <advance width="1159"/>
  <unicode hex="004D"/>
  <anchor x="553.02" y="0.0" name="bottom"/>
  <outline>
    <contour>
      <point x="26.319999999999993" y="0.0" type="line"/>
      <point x="269.65999999999997" y="0.0" type="line"/>
      <point x="269.65999999999997" y="76.11999999999999" type="line"/>
      <point x="260.58" y="76.11999999999999" type="line" smooth="yes"/>
      <point x="234.26" y="76.11999999999999"/>
      <point x="206.94" y="79.11999999999999"/>
      <point x="206.94" y="86.11999999999999" type="curve" smooth="yes"/>
      <point x="206.94" y="686.6479999999999" type="line"/>
      <point x="185.7" y="687.0" type="line"/>
      <point x="406.8" y="-2.0" type="line"/>
      <point x="560.1" y="-2.0" type="line"/>
      <point x="780.1999999999999" y="686.0" type="line"/>
      <point x="760.96" y="688.0" type="line"/>
      <point x="760.96" y="86.11999999999999" type="line" smooth="yes"/>
      <point x="760.96" y="79.11999999999999"/>
      <point x="733.64" y="76.11999999999999"/>
      <point x="707.3200000000002" y="76.11999999999999" type="curve" smooth="yes"/>
      <point x="697.6999999999999" y="76.11999999999999" type="line"/>
      <point x="697.6999999999999" y="0.0" type="line"/>
      <point x="1133.3600000000001" y="0.0" type="line"/>
      <point x="1133.3600000000001" y="76.11999999999999" type="line"/>
      <point x="1121.2" y="76.11999999999999" type="line" smooth="yes"/>
      <point x="1091.34" y="76.11999999999999"/>
      <point x="1070.1" y="83.11999999999999"/>
      <point x="1070.1" y="112.11999999999999" type="curve" smooth="yes"/>
      <point x="1070.1" y="597.88" type="line" smooth="yes"/>
      <point x="1070.1" y="626.88"/>
      <point x="1091.34" y="633.88"/>
      <point x="1121.2" y="633.88" type="curve" smooth="yes"/>
      <point x="1133.3600000000001" y="633.88" type="line"/>
      <point x="1133.3600000000001" y="710.0" type="line"/>
      <point x="669.3800000000001" y="710.0" type="line"/>
      <point x="557.5600000000001" y="304.16" type="line"/>
      <point x="614.74" y="222.12000000000003" type="line"/>
      <point x="495.84" y="710.0" type="line"/>
      <point x="26.319999999999993" y="710.0" type="line"/>
      <point x="26.319999999999993" y="633.88" type="line"/>
      <point x="37.94" y="633.88" type="line" smooth="yes"/>
      <point x="67.8" y="633.88"/>
      <point x="89.03999999999999" y="626.88"/>
      <point x="89.03999999999999" y="597.88" type="curve" smooth="yes"/>
      <point x="89.03999999999999" y="112.11999999999999" type="line" smooth="yes"/>
      <point x="89.03999999999999" y="83.11999999999999"/>
      <point x="67.8" y="76.11999999999999"/>
      <point x="37.94" y="76.11999999999999" type="curve"/>
      <point x="26.319999999999993" y="76.11999999999999" type="line"/>
    </contour>
  </outline>
</glyph>
<glyph name="N" format="2">
  <advance width="891"/>
  <unicode hex="004E"/>
  <anchor x="486.2199999999999" y="741.0" name="top"/>
  <anchor x="486.2199999999999" y="0.0" name="bottom"/>
  <outline>
    <contour>
      <point x="26.319999999999993" y="0.0" type="line"/>
      <point x="281.82000000000005" y="0.0" type="line"/>
      <point x="281.82000000000005" y="76.11999999999999" type="line"/>
      <point x="267.65999999999997" y="76.11999999999999" type="line" smooth="yes"/>
      <point x="236.8" y="76.11999999999999"/>
      <point x="206.94" y="84.11999999999999"/>
      <point x="206.94" y="91.11999999999999" type="curve" smooth="yes"/>
      <point x="206.94" y="657.3599999999999" type="line"/>
      <point x="163.92000000000002" y="670.0" type="line"/>
      <point x="511.0" y="0.0" type="line"/>
      <point x="802.4399999999999" y="0.0" type="line"/>
      <point x="802.4399999999999" y="597.0400000000001" type="line" smooth="yes"/>
      <point x="802.4399999999999" y="626.0400000000001"/>
      <point x="824.22" y="633.88"/>
      <point x="853.54" y="633.88" type="curve" smooth="yes"/>
      <point x="865.7" y="633.88" type="line"/>
      <point x="865.7" y="710.0" type="line"/>
      <point x="610.2" y="710.0" type="line"/>
      <point x="610.2" y="633.88" type="line"/>
      <point x="624.3600000000001" y="633.88" type="line" smooth="yes"/>
      <point x="653.6800000000001" y="633.88"/>
      <point x="685.0799999999998" y="625.88"/>
      <point x="685.0799999999998" y="618.88" type="curve" smooth="yes"/>
      <point x="685.0799999999998" y="198.16" type="line"/>
      <point x="726.5600000000001" y="174.536" type="line"/>
      <point x="474.6" y="710.0" type="line"/>
      <point x="26.319999999999993" y="710.0" type="line"/>
      <point x="26.319999999999993" y="633.88" type="line"/>
      <point x="37.94" y="633.88" type="line" smooth="yes"/>
      <point x="67.8" y="633.88"/>
      <point x="89.03999999999999" y="626.88"/>
      <point x="89.03999999999999" y="597.88" type="curve" smooth="yes"/>
      <point x="89.03999999999999" y="117.11999999999999" type="line" smooth="yes"/>
      <point x="89.03999999999999" y="88.11999999999999"/>
      <point x="67.8" y="76.11999999999999"/>
      <point x="37.94" y="76.11999999999999" type="curve" smooth="yes"/>
      <point x="26.319999999999993" y="76.11999999999999" type="line"/>
    </contour>
  </outline>
</glyph>
<glyph name="T" format="2">
  <advance width="902"/>
  <unicode hex="0054"/>
  <anchor x="403.2600000000001" y="741.0" name="top"/>
  <anchor x="403.2600000000001" y="0.0" name="bottom"/>
  <outline>
    <contour>
      <point x="295.98" y="112.11999999999999" type="line" smooth="yes"/>
      <point x="295.98" y="83.11999999999999"/>
      <point x="275.74" y="76.11999999999999"/>
      <point x="245.88000000000005" y="76.11999999999999" type="curve" smooth="yes"/>
      <point x="229.72" y="76.11999999999999" type="line"/>
      <point x="229.72" y="0.0" type="line"/>
      <point x="671.92" y="0.0" type="line"/>
      <point x="671.92" y="76.11999999999999" type="line"/>
      <point x="655.22" y="76.11999999999999" type="line" smooth="yes"/>
      <point x="625.3600000000001" y="76.11999999999999"/>
      <point x="605.1199999999999" y="83.11999999999999"/>
      <point x="605.1199999999999" y="112.11999999999999" type="curve" smooth="yes"/>
      <point x="605.1199999999999" y="623.2159999999999" type="line"/>
      <point x="615.74" y="623.2159999999999" type="line" smooth="yes"/>
      <point x="695.7" y="623.2159999999999"/>
      <point x="730.0999999999999" y="616.2159999999999"/>
      <point x="732.6399999999999" y="580.2159999999999" type="curve" smooth="yes"/>
      <point x="741.7200000000001" y="467.24" type="line"/>
      <point x="873.78" y="467.24" type="line"/>
      <point x="873.78" y="710.0" type="line"/>
      <point x="27.32" y="710.0" type="line"/>
      <point x="27.32" y="467.24" type="line"/>
      <point x="159.38000000000005" y="467.24" type="line"/>
      <point x="169.0" y="580.2159999999999" type="line" smooth="yes"/>
      <point x="171.0" y="616.2159999999999"/>
      <point x="205.94000000000005" y="623.2159999999999"/>
      <point x="285.35999999999996" y="623.2159999999999" type="curve" smooth="yes"/>
      <point x="295.98" y="623.2159999999999" type="line"/>
    </contour>
  </outline>
</glyph>
<glyph name="Z" format="2">
  <advance width="766.04"/>
  <unicode hex="005A"/>
  <anchor x="391.1" y="741.0" name="top"/>
  <anchor x="391.1" y="0.0" name="bottom"/>
  <outline>
    <contour>
      <point x="207.94" y="87.28800000000001" type="line"/>
      <point x="261.58" y="9.015999999999998" type="line"/>
      <point x="729.1" y="602.736" type="line"/>
      <point x="729.1" y="710.0" type="line"/>
      <point x="44.02000000000001" y="710.0" type="line"/>
      <point x="44.02000000000001" y="494.69599999999997" type="line"/>
      <point x="172.54000000000002" y="494.69599999999997" type="line"/>
      <point x="178.08000000000004" y="579.712" type="line" smooth="yes"/>
      <point x="180.62" y="615.712"/>
      <point x="223.64000000000004" y="622.712"/>
      <point x="282.81999999999994" y="622.712" type="curve" smooth="yes"/>
      <point x="513.5400000000001" y="622.712" type="line"/>
      <point x="472.05999999999995" y="688.984" type="line"/>
      <point x="19.240000000000002" y="111.096" type="line"/>
      <point x="19.240000000000002" y="0.0" type="line"/>
      <point x="747.8" y="0.0" type="line"/>
      <point x="747.8" y="238.62399999999997" type="line"/>
      <point x="619.28" y="238.62399999999997" type="line"/>
      <point x="605.1199999999999" y="130.288" type="line" smooth="yes"/>
      <point x="600.58" y="94.28800000000001"/>
      <point x="566.1800000000001" y="87.28800000000001"/>
      <point x="475.6" y="87.28800000000001" type="curve" smooth="yes"/>
    </contour>
  </outline>
</glyph>
<glyph name="e" format="2">
  <advance width="729.1"/>
  <unicode hex="0065"/>
  <anchor x="332.91999999999996" y="551.0" name="top"/>
  <anchor x="516.08" y="1.0" name="right"/>
  <anchor x="357.7" y="0.0" name="bottom"/>
  <outline>
    <contour>
      <point x="397.18" y="-10.0" type="curve" smooth="yes"/>
      <point x="553.0200000000002" y="-10.0"/>
      <point x="641.0600000000001" y="44.495999999999995"/>
      <point x="688.6199999999999" y="123.64" type="curve"/>
      <point x="597.0399999999998" y="171.464" type="line"/>
      <point x="569.7199999999999" y="127.96000000000001"/>
      <point x="525.7" y="82.77599999999998"/>
      <point x="450.81999999999994" y="82.77599999999998" type="curve" smooth="yes"/>
      <point x="345.08000000000004" y="82.77599999999998"/>
      <point x="318.76" y="143.464"/>
      <point x="318.76" y="254.992" type="curve" smooth="yes"/>
      <point x="318.76" y="386.656"/>
      <point x="341.0661538456801" y="434.37600000000003"/>
      <point x="383.02" y="434.37600000000003" type="curve" smooth="yes"/>
      <point x="424.5" y="434.37600000000003"/>
      <point x="440.20000000000005" y="401.328"/>
      <point x="442.20000000000005" y="268.328" type="curve"/>
      <point x="464.98" y="301.976" type="line"/>
      <point x="297.52" y="301.976" type="line"/>
      <point x="297.52" y="221.84799999999998" type="line"/>
      <point x="705.3200000000002" y="221.84799999999998" type="line"/>
      <point x="703.78" y="423.0"/>
      <point x="589.96" y="522.992"/>
      <point x="375.94000000000005" y="522.992" type="curve" smooth="yes"/>
      <point x="172.54000000000002" y="522.992"/>
      <point x="27.32" y="416.488"/>
      <point x="27.32" y="255.328" type="curve" smooth="yes"/>
      <point x="27.32" y="91.168"/>
      <point x="165.45999999999998" y="-10.0"/>
    </contour>
  </outline>
</glyph>
<glyph name="q" format="2">
  <advance width="813.6000000000001"/>
  <unicode hex="0071"/>
  <outline>
    <contour>
      <point x="400.7199999999999" y="-223.0" type="line"/>
      <point x="798.9" y="-223.0" type="line"/>
      <point x="798.9" y="-152.208" type="line"/>
      <point x="797.9000000000001" y="-152.208" type="line"/>
      <point x="776.6600000000001" y="-152.208"/>
      <point x="758.4199999999998" y="-146.04"/>
      <point x="758.4199999999998" y="-124.52799999999999" type="curve" smooth="yes"/>
      <point x="758.4199999999998" y="513.4960000000001" type="line"/>
      <point x="588.42" y="513.4960000000001" type="line"/>
      <point x="493.30000000000007" y="399.672" type="line"/>
      <point x="467.52" y="401.64" type="line"/>
      <point x="467.52" y="-143.872" type="line" smooth="yes"/>
      <point x="467.52" y="-150.04"/>
      <point x="429.04" y="-152.208"/>
      <point x="403.26" y="-152.208" type="curve" smooth="yes"/>
      <point x="400.7199999999999" y="-152.208" type="line"/>
    </contour>
    <contour>
      <point x="295.98" y="-10.0" type="curve" smooth="yes"/>
      <point x="414.88000000000005" y="-10.0"/>
      <point x="471.05999999999995" y="40.312"/>
      <point x="526.7" y="138.44799999999998" type="curve"/>
      <point x="526.7" y="250.90400000000002" type="line"/>
      <point x="459.9" y="141.264"/>
      <point x="438.6600000000001" y="95.256"/>
      <point x="391.1" y="95.256" type="curve" smooth="yes"/>
      <point x="343.54" y="95.256"/>
      <point x="324.84000000000003" y="149.464"/>
      <point x="324.84000000000003" y="250.0" type="curve" smooth="yes"/>
      <point x="324.84000000000003" y="353.03999999999996"/>
      <point x="345.08000000000004" y="417.736"/>
      <point x="400.71999999999997" y="417.736" type="curve" smooth="yes"/>
      <point x="452.81999999999994" y="417.736"/>
      <point x="472.0600000000001" y="372.904"/>
      <point x="526.7" y="281.568" type="curve"/>
      <point x="526.7" y="394.69599999999997" type="line"/>
      <point x="487.7600000000001" y="479.344"/>
      <point x="418.41999999999996" y="522.992"/>
      <point x="305.6" y="522.992" type="curve" smooth="yes"/>
      <point x="142.67999999999998" y="522.992"/>
      <point x="27.32" y="409.832"/>
      <point x="27.32" y="250.0" type="curve" smooth="yes"/>
      <point x="27.32" y="94.0"/>
      <point x="132.06" y="-10.0"/>
    </contour>
  </outline>
</glyph>
<glyph name="registered" format="2">
  <advance width="1021.54"/>
  <unicode hex="00AE"/>
  <outline>
    <contour>
      <point x="154.84000000000003" y="355.0" type="curve" smooth="yes"/>
      <point x="154.84000000000003" y="531.016"/>
      <point x="297.52" y="668.032"/>
      <point x="510.0" y="668.032" type="curve" smooth="yes"/>
      <point x="723.0200000000002" y="668.032"/>
      <point x="866.7" y="531.016"/>
      <point x="866.7" y="355.0" type="curve" smooth="yes"/>
      <point x="866.7" y="178.98399999999998"/>
      <point x="723.0200000000002" y="41.96799999999999"/>
      <point x="510.0" y="41.96799999999999" type="curve" smooth="yes"/>
      <point x="297.52" y="41.96799999999999"/>
      <point x="154.84000000000003" y="178.98399999999998"/>
    </contour>
    <contour>
      <point x="35.400000000000006" y="355.0" type="curve" smooth="yes"/>
      <point x="35.400000000000006" y="133.008"/>
      <point x="235.26" y="-37.984"/>
      <point x="510.0" y="-37.984" type="curve" smooth="yes"/>
      <point x="785.7399999999999" y="-37.984"/>
      <point x="985.6000000000001" y="133.008"/>
      <point x="985.6000000000001" y="355.0" type="curve" smooth="yes"/>
      <point x="985.6000000000001" y="576.992"/>
      <point x="785.7399999999999" y="747.984"/>
      <point x="510.0" y="747.984" type="curve" smooth="yes"/>
      <point x="235.26" y="747.984"/>
      <point x="35.400000000000006" y="576.992"/>
    </contour>
    <contour>
      <point x="277.28000000000003" y="152.16799999999998" type="line"/>
      <point x="512.5400000000001" y="152.16799999999998" type="line"/>
      <point x="512.5400000000001" y="212.472" type="line"/>
      <point x="503.91999999999996" y="212.472" type="line" smooth="yes"/>
      <point x="493.3" y="212.472"/>
      <point x="486.21999999999997" y="214.30400000000003"/>
      <point x="486.21999999999997" y="218.30400000000003" type="curve" smooth="yes"/>
      <point x="486.21999999999997" y="307.672" type="line"/>
      <point x="527.7" y="307.672" type="line" smooth="yes"/>
      <point x="669.38" y="307.672"/>
      <point x="739.7200000000001" y="357.504"/>
      <point x="739.7200000000001" y="436.33599999999996" type="curve" smooth="yes"/>
      <point x="739.7200000000001" y="512.168"/>
      <point x="676.46" y="557.0"/>
      <point x="531.24" y="557.0" type="curve" smooth="yes"/>
      <point x="277.28000000000003" y="557.0" type="line"/>
      <point x="277.28000000000003" y="495.86400000000003" type="line"/>
      <point x="281.81999999999994" y="495.86400000000003" type="line" smooth="yes"/>
      <point x="299.5200000000001" y="495.86400000000003"/>
      <point x="316.21999999999997" y="491.86400000000003"/>
      <point x="316.21999999999997" y="475.86400000000003" type="curve" smooth="yes"/>
      <point x="316.21999999999997" y="232.472" type="line" smooth="yes"/>
      <point x="316.21999999999997" y="216.472"/>
      <point x="299.5200000000001" y="212.472"/>
      <point x="281.81999999999994" y="212.472" type="curve" smooth="yes"/>
      <point x="277.28000000000003" y="212.472" type="line"/>
    </contour>
    <contour>
      <point x="501.91999999999996" y="489.53599999999994" type="line" smooth="yes"/>
      <point x="544.4" y="489.53599999999994"/>
      <point x="569.7199999999999" y="471.86400000000003"/>
      <point x="569.7199999999999" y="428.016" type="curve" smooth="yes"/>
      <point x="569.7199999999999" y="382.168"/>
      <point x="544.4" y="358.496"/>
      <point x="498.38000000000005" y="358.496" type="curve" smooth="yes"/>
      <point x="486.21999999999997" y="358.496" type="line"/>
      <point x="486.21999999999997" y="489.53599999999994" type="line"/>
    </contour>
    <contour>
      <point x="492.3" y="335.0" type="line"/>
      <point x="573.2600000000001" y="152.0" type="line"/>
      <point x="752.8800000000001" y="152.0" type="line"/>
      <point x="752.8800000000001" y="212.30400000000003" type="line"/>
      <point x="746.8" y="212.30400000000003" type="line" smooth="yes"/>
      <point x="732.64" y="212.30400000000003"/>
      <point x="724.0200000000002" y="215.30400000000003"/>
      <point x="716.9399999999998" y="228.30400000000003" type="curve" smooth="yes"/>
      <point x="635.98" y="376.44800000000004" type="line"/>
    </contour>
  </outline>
</glyph>
<glyph name="oslash" format="2">
  <advance width="794.3600000000001"/>
  <unicode hex="00F8"/>
  <anchor x="364.78000000000003" y="551.0" name="top"/>
  <outline>
    <contour>
      <point x="657.7600000000001" y="523.0" type="line"/>
      <point x="12.159999999999997" y="-11.672" type="line"/>
      <point x="136.60000000000002" y="-11.672" type="line"/>
      <point x="782.2" y="523.0" type="line"/>
    </contour>
    <contour>
      <point x="397.18000000000006" y="-10.0" type="curve"/>
      <point x="628.9" y="-10.0"/>
      <point x="767.04" y="97.832"/>
      <point x="767.04" y="256.496" type="curve" smooth="yes"/>
      <point x="767.04" y="414.992"/>
      <point x="628.9" y="522.992"/>
      <point x="397.18000000000006" y="522.992" type="curve" smooth="yes"/>
      <point x="165.45999999999998" y="522.992"/>
      <point x="27.319999999999997" y="415.16"/>
      <point x="27.319999999999997" y="256.496" type="curve" smooth="yes"/>
      <point x="27.319999999999997" y="97.832"/>
      <point x="165.45999999999998" y="-10.0"/>
    </contour>
    <contour>
      <point x="392.64" y="78.61600000000001" type="curve"/>
      <point x="330.38" y="78.61600000000001"/>
      <point x="309.14" y="129.992"/>
      <point x="309.14" y="256.496" type="curve" smooth="yes"/>
      <point x="309.14" y="378.33599999999996"/>
      <point x="336.29351351368007" y="434.37600000000003"/>
      <point x="400.71999999999997" y="434.37600000000003" type="curve" smooth="yes"/>
      <point x="463.82500000000005" y="434.37600000000003"/>
      <point x="485.21999999999997" y="383.0"/>
      <point x="485.21999999999997" y="256.496" type="curve" smooth="yes"/>
      <point x="485.21999999999997" y="134.656"/>
      <point x="457.9" y="78.61600000000001"/>
    </contour>
  </outline>
</glyph>
<glyph name="eng" format="2">
  <advance width="777.6600000000001"/>
  <unicode hex="014B"/>
  <outline>
    <contour>
      <point x="19.240000000000002" y="0.0" type="line"/>
      <point x="386.56000000000006" y="0.0" type="line"/>
      <point x="386.56000000000006" y="70.792" type="line"/>
      <point x="383.02" y="70.792" type="line" smooth="yes"/>
      <point x="370.85999999999996" y="70.792"/>
      <point x="350.62" y="72.96000000000002"/>
      <point x="350.62" y="79.12799999999999" type="curve" smooth="yes"/>
      <point x="350.62" y="404.312" type="line"/>
      <point x="333.91999999999996" y="403.66400000000004" type="line"/>
      <point x="333.91999999999996" y="512.992" type="line"/>
      <point x="19.240000000000002" y="512.992" type="line"/>
      <point x="19.240000000000002" y="438.704" type="line"/>
      <point x="27.319999999999997" y="436.704" type="line" smooth="yes"/>
      <point x="51.1" y="430.03200000000004"/>
      <point x="59.72" y="425.69599999999997"/>
      <point x="59.72" y="407.512" type="curve" smooth="yes"/>
      <point x="59.72" y="98.47200000000001" type="line" smooth="yes"/>
      <point x="59.72" y="76.96000000000001"/>
      <point x="41.47999999999999" y="70.792"/>
      <point x="20.240000000000002" y="70.792" type="curve" smooth="yes"/>
      <point x="19.240000000000002" y="70.792" type="line"/>
    </contour>
    <contour>
      <point x="763.5" y="345.352" type="line" smooth="yes"/>
      <point x="763.5" y="461.344"/>
      <point x="680.0" y="522.992"/>
      <point x="553.0200000000002" y="522.992" type="curve" smooth="yes"/>
      <point x="447.28000000000003" y="522.992"/>
      <point x="366.32" y="475.144"/>
      <point x="326.84000000000003" y="394.75199999999995" type="curve"/>
      <point x="346.08" y="324.82399999999996" type="line"/>
      <point x="366.31999999999994" y="376.384"/>
      <point x="393.64000000000004" y="408.408"/>
      <point x="429.0399999999999" y="408.408" type="curve" smooth="yes"/>
      <point x="461.44000000000005" y="408.408"/>
      <point x="472.06" y="388.55199999999996"/>
      <point x="472.06" y="347.66400000000004" type="curve"/>
      <point x="472.06" y="-27.528" type="line" smooth="yes"/>
      <point x="472.06" y="-117.37599999999999"/>
      <point x="447.28000000000003" y="-146.544"/>
      <point x="394.64000000000004" y="-146.544" type="curve" smooth="yes"/>
      <point x="359.2399999999999" y="-146.544"/>
      <point x="330.38000000000005" y="-136.55200000000002"/>
      <point x="306.6" y="-128.888" type="curve"/>
      <point x="306.6" y="-221.008" type="line"/>
      <point x="324.84000000000003" y="-227.83999999999997"/>
      <point x="383.02" y="-236.0"/>
      <point x="452.81999999999994" y="-236.0" type="curve" smooth="yes"/>
      <point x="666.8399999999999" y="-236.0"/>
      <point x="763.5" y="-173.2"/>
      <point x="763.5" y="-0.9040000000000106" type="curve" smooth="yes"/>
    </contour>
  </outline>
</glyph>
<glyph name="OE" format="2">
  <advance width="1217.3200000000002"/>
  <unicode hex="0152"/>
  <outline>
    <contour>
      <point x="575.2600000000001" y="86.95200000000001" type="line"/>
      <point x="526.7" y="86.95200000000001" type="line" smooth="yes"/>
      <point x="428.03999999999996" y="86.95200000000001"/>
      <point x="354.1600000000001" y="182.30400000000003"/>
      <point x="354.1600000000001" y="353.0" type="curve" smooth="yes"/>
      <point x="354.1600000000001" y="523.696"/>
      <point x="428.03999999999996" y="623.048"/>
      <point x="526.7" y="623.048" type="curve" smooth="yes"/>
      <point x="575.2600000000001" y="623.048" type="line"/>
    </contour>
    <contour>
      <point x="1190.0" y="0.0" type="line"/>
      <point x="1190.0" y="231.97600000000003" type="line"/>
      <point x="1080.7200000000003" y="231.97600000000003" type="line"/>
      <point x="1067.56" y="129.456" type="line" smooth="yes"/>
      <point x="1063.0200000000002" y="93.45469454434955"/>
      <point x="1028.62" y="86.45599999999999"/>
      <point x="938.04" y="86.45599999999999" type="curve" smooth="yes"/>
      <point x="884.4" y="86.45599999999999" type="line"/>
      <point x="884.4" y="623.544" type="line"/>
      <point x="940.5799999999999" y="623.544" type="line" smooth="yes"/>
      <point x="999.76" y="623.544"/>
      <point x="1042.78" y="616.544"/>
      <point x="1045.3200000000002" y="580.544" type="curve" smooth="yes"/>
      <point x="1050.8600000000001" y="503.024" type="line"/>
      <point x="1158.1399999999999" y="503.024" type="line"/>
      <point x="1158.1399999999999" y="710.0" type="line"/>
      <point x="512.54" y="710.0" type="line" smooth="yes"/>
      <point x="231.72000000000003" y="710.0"/>
      <point x="33.4" y="577.32"/>
      <point x="33.4" y="353.0" type="curve" smooth="yes"/>
      <point x="33.4" y="127.68"/>
      <point x="231.72000000000003" y="0.0"/>
      <point x="512.54" y="0.0" type="curve" smooth="yes"/>
    </contour>
    <contour>
      <point x="852.54" y="400.81600000000003" type="line"/>
      <point x="852.54" y="326.016" type="line"/>
      <point x="1078.18" y="313.024" type="line"/>
      <point x="1078.18" y="413.808" type="line"/>
    </contour>
  </outline>
</glyph>
<glyph name="Uogonek" format="2">
  <advance width="883.4"/>
  <unicode hex="0172"/>
  <outline>
    <contour>
      <point x="540.86" y="-244.32" type="curve" smooth="yes"/>
      <point x="639.52" y="-244.32"/>
      <point x="695.7" y="-214.504"/>
      <point x="738.1800000000001" y="-170.032" type="curve"/>
      <point x="681.5399999999998" y="-121.05599999999998" type="line"/>
      <point x="669.38" y="-130.56"/>
      <point x="649.1399999999999" y="-149.05599999999998"/>
      <point x="618.2800000000001" y="-149.05599999999998" type="curve" smooth="yes"/>
      <point x="590.9600000000002" y="-149.05599999999998"/>
      <point x="574.26" y="-135.72"/>
      <point x="574.26" y="-107.71199999999999" type="curve" smooth="yes"/>
      <point x="574.26" y="-62.16"/>
      <point x="602.58" y="-12.775999999999996"/>
      <point x="700.2399999999999" y="59.0" type="curve" smooth="yes"/>
      <point x="764.5" y="108.99199999999999"/>
      <point x="796.3600000000001" y="179.824"/>
      <point x="796.3600000000001" y="278.488" type="curve" smooth="yes"/>
      <point x="796.3600000000001" y="596.2" type="line" smooth="yes"/>
      <point x="796.3600000000001" y="626.0400000000001"/>
      <point x="818.14" y="633.88"/>
      <point x="848.0" y="633.88" type="curve" smooth="yes"/>
      <point x="859.6199999999999" y="633.88" type="line"/>
      <point x="859.6199999999999" y="710.0" type="line"/>
      <point x="617.2800000000001" y="710.0" type="line"/>
      <point x="617.2800000000001" y="633.88" type="line"/>
      <point x="626.3600000000001" y="633.88" type="line" smooth="yes"/>
      <point x="650.14" y="633.88"/>
      <point x="679.0" y="627.544"/>
      <point x="679.0" y="613.544" type="curve" smooth="yes"/>
      <point x="679.0" y="278.488" type="line" smooth="yes"/>
      <point x="679.0" y="147.608"/>
      <point x="625.3600000000001" y="94.77600000000001"/>
      <point x="536.3199999999999" y="94.77600000000001" type="curve" smooth="yes"/>
      <point x="436.11999999999995" y="94.77600000000001"/>
      <point x="396.18000000000006" y="143.44799999999998"/>
      <point x="396.18000000000006" y="278.488" type="curve" smooth="yes"/>
      <point x="396.18000000000006" y="623.88" type="line" smooth="yes"/>
      <point x="396.18000000000006" y="630.88"/>
      <point x="424.5" y="633.88"/>
      <point x="447.28000000000003" y="633.88" type="curve" smooth="yes"/>
      <point x="457.90000000000003" y="633.88" type="line"/>
      <point x="457.90000000000003" y="710.0" type="line"/>
      <point x="23.78000000000001" y="710.0" type="line"/>
      <point x="23.78000000000001" y="633.88" type="line"/>
      <point x="35.39999999999999" y="633.88" type="line" smooth="yes"/>
      <point x="65.26000000000002" y="633.88"/>
      <point x="87.04" y="626.88"/>
      <point x="87.04" y="597.88" type="curve" smooth="yes"/>
      <point x="87.04" y="278.488" type="line" smooth="yes"/>
      <point x="87.04" y="75.99199999999999"/>
      <point x="229.71999999999997" y="-10.0"/>
      <point x="457.9" y="-10.0" type="curve" smooth="yes"/>
      <point x="507.4599999999999" y="-10.0"/>
      <point x="555.02" y="-3.6639999999999997"/>
      <point x="597.0399999999998" y="9.512" type="curve"/>
      <point x="646.6" y="51.65599999999999" type="line"/>
      <point x="467.52" y="-7.360000000000001"/>
      <point x="367.31999999999994" y="-54.536"/>
      <point x="367.31999999999994" y="-140.008" type="curve" smooth="yes"/>
      <point x="367.31999999999994" y="-207.824"/>
      <point x="436.12" y="-244.32"/>
    </contour>
  </outline>
</glyph>
<glyph name="ohorn" format="2">
  <advance width="815.6"/>
  <unicode hex="01A1"/>
  <anchor x="364.78000000000003" y="538.0" name="top"/>
  <outline>
    <contour>
      <point x="443.74" y="470.52000000000004" type="curve"/>
      <point x="734.6399999999999" y="454.69599999999997"/>
      <point x="835.8399999999999" y="505.53599999999994"/>
      <point x="835.8399999999999" y="680.0" type="curve"/>
      <point x="645.6" y="680.0" type="line"/>
      <point x="643.0600000000001" y="556.992"/>
      <point x="580.3399999999999" y="522.992"/>
      <point x="400.7199999999999" y="522.992" type="curve"/>
      <point x="405.26" y="509.0"/>
      <point x="431.58000000000004" y="475.192"/>
    </contour>
    <contour>
      <point x="397.18000000000006" y="-10.0" type="curve"/>
      <point x="628.9" y="-10.0"/>
      <point x="767.04" y="97.832"/>
      <point x="767.04" y="258.16" type="curve" smooth="yes"/>
      <point x="767.04" y="367.672"/>
      <point x="682.54" y="464.832"/>
      <point x="539.86" y="492.344" type="curve"/>
      <point x="496.84000000000003" y="513.3280000000001"/>
      <point x="450.81999999999994" y="522.992"/>
      <point x="397.18000000000006" y="522.992" type="curve" smooth="yes"/>
      <point x="165.45999999999998" y="522.992"/>
      <point x="27.32" y="414.992"/>
      <point x="27.32" y="256.496" type="curve" smooth="yes"/>
      <point x="27.32" y="97.832"/>
      <point x="165.45999999999998" y="-10.0"/>
    </contour>
    <contour>
      <point x="397.18000000000006" y="78.61600000000001" type="curve"/>
      <point x="347.08000000000004" y="78.61600000000001"/>
      <point x="324.84000000000003" y="134.824"/>
      <point x="324.84000000000003" y="256.496" type="curve" smooth="yes"/>
      <point x="324.84000000000003" y="377.832"/>
      <point x="347.08000000000004" y="434.37600000000003"/>
      <point x="397.18000000000006" y="434.37600000000003" type="curve" smooth="yes"/>
      <point x="447.28000000000003" y="434.37600000000003"/>
      <point x="469.5199999999999" y="377.832"/>
      <point x="469.5199999999999" y="256.496" type="curve" smooth="yes"/>
      <point x="469.5199999999999" y="134.656"/>
      <point x="447.28000000000003" y="78.61600000000001"/>
    </contour>
  </outline>
</glyph>
<glyph name="Uhorn" format="2">
  <advance width="982.0600000000002"/>
  <unicode hex="01AF"/>
  <anchor x="495.84000000000003" y="663.0" name="top"/>
  <outline>
    <contour>
      <point x="617.2800000000001" y="710.0" type="line"/>
      <point x="617.2800000000001" y="633.88" type="line"/>
      <point x="626.3600000000001" y="633.88" type="line" smooth="yes"/>
      <point x="650.14" y="633.88"/>
      <point x="679.0" y="627.544"/>
      <point x="679.0" y="613.544" type="curve" smooth="yes"/>
      <point x="679.0" y="278.488" type="line" smooth="yes"/>
      <point x="679.0" y="147.608"/>
      <point x="625.3600000000001" y="94.77600000000001"/>
      <point x="536.3199999999999" y="94.77600000000001" type="curve" smooth="yes"/>
      <point x="436.11999999999995" y="94.77600000000001"/>
      <point x="396.18000000000006" y="143.44799999999998"/>
      <point x="396.18000000000006" y="278.488" type="curve" smooth="yes"/>
      <point x="396.18000000000006" y="623.88" type="line" smooth="yes"/>
      <point x="396.18000000000006" y="630.88"/>
      <point x="424.5" y="633.88"/>
      <point x="447.28000000000003" y="633.88" type="curve" smooth="yes"/>
      <point x="457.90000000000003" y="633.88" type="line"/>
      <point x="457.90000000000003" y="710.0" type="line"/>
      <point x="23.78000000000001" y="710.0" type="line"/>
      <point x="23.78000000000001" y="633.88" type="line"/>
      <point x="35.39999999999999" y="633.88" type="line" smooth="yes"/>
      <point x="65.26000000000002" y="633.88"/>
      <point x="87.04" y="626.88"/>
      <point x="87.04" y="597.88" type="curve" smooth="yes"/>
      <point x="87.04" y="278.488" type="line" smooth="yes"/>
      <point x="87.04" y="75.99199999999999"/>
      <point x="229.71999999999997" y="-10.0"/>
      <point x="457.9" y="-10.0" type="curve" smooth="yes"/>
      <point x="650.1399999999999" y="-10.0"/>
      <point x="796.3600000000001" y="73.328"/>
      <point x="796.3600000000001" y="278.488" type="curve" smooth="yes"/>
      <point x="796.3600000000001" y="600.2" type="line" smooth="yes"/>
      <point x="796.3600000000001" y="624.536"/>
      <point x="807.52" y="635.0400000000001"/>
      <point x="833.3" y="639.376" type="curve" smooth="yes"/>
      <point x="950.1999999999999" y="656.2080000000001"/>
      <point x="1034.16" y="723.192"/>
      <point x="1034.16" y="877.0" type="curve"/>
      <point x="838.38" y="877.0" type="line"/>
      <point x="834.8399999999999" y="743.344"/>
      <point x="822.6800000000001" y="710.0"/>
      <point x="671.9200000000001" y="710.0" type="curve" smooth="yes"/>
    </contour>
  </outline>
</glyph>
<glyph name="dotaccent" format="2">
  <advance width="594.5"/>
  <unicode hex="02D9"/>
  <anchor x="297.52" y="526.0" name="_top"/>
  <outline>
    <contour>
      <point x="294.98" y="566.584" type="curve" smooth="yes"/>
      <point x="388.56000000000006" y="566.584"/>
      <point x="442.20000000000005" y="600.4"/>
      <point x="442.20000000000005" y="657.536" type="curve" smooth="yes"/>
      <point x="442.20000000000005" y="714.5039999999999"/>
      <point x="388.56000000000006" y="748.32"/>
      <point x="294.98" y="748.32" type="curve" smooth="yes"/>
      <point x="202.4" y="748.32"/>
      <point x="147.22000000000003" y="714.5039999999999"/>
      <point x="147.22000000000003" y="657.536" type="curve" smooth="yes"/>
      <point x="147.22000000000003" y="599.568"/>
      <point x="202.4" y="566.584"/>
    </contour>
  </outline>
</glyph>
<glyph name="emdash" format="2">
  <advance width="1128.2799999999997"/>
  <unicode hex="2014"/>
  <outline>
    <contour>
      <point x="77.42000000000002" y="378.28" type="line"/>
      <point x="77.42000000000002" y="260.03999999999996" type="line"/>
      <point x="1050.8600000000001" y="260.03999999999996" type="line"/>
      <point x="1050.8600000000001" y="378.28" type="line"/>
    </contour>
  </outline>
</glyph>
<glyph name="manat" format="2">
  <advance width="665.8399999999999"/>
  <unicode hex="20BC"/>
  <outline>
    <contour>
      <point x="293.44" y="720.0" type="line"/>
      <point x="293.44" y="158.96" type="line"/>
      <point x="372.4" y="158.96" type="line"/>
      <point x="372.4" y="720.0" type="line"/>
    </contour>
    <contour>
      <point x="332.91999999999996" y="506.384" type="curve" smooth="yes"/>
      <point x="428.04" y="506.384"/>
      <point x="444.74" y="394.128"/>
      <point x="421.96000000000015" y="0.0" type="curve"/>
      <point x="653.6800000000001" y="0.0" type="line"/>
      <point x="653.6800000000001" y="346.36"/>
      <point x="540.8600000000001" y="590.0"/>
      <point x="332.91999999999996" y="590.0" type="curve" smooth="yes"/>
      <point x="124.97999999999999" y="590.0"/>
      <point x="12.16" y="346.36"/>
      <point x="12.16" y="0.0" type="curve"/>
      <point x="243.88" y="0.0" type="line"/>
      <point x="220.10000000000002" y="394.128"/>
      <point x="236.8" y="506.384"/>
    </contour>
  </outline>
</glyph>
<glyph name="arrowleft" format="2">
  <advance width="878.8600000000001"/>
  <unicode hex="2190"/>
  <outline>
    <contour>
      <point x="491.3" y="560.0" type="line"/>
      <point x="65.26" y="360.0" type="line"/>
      <point x="65.26" y="346.0" type="line"/>
      <point x="491.3" y="146.0" type="line"/>
      <point x="502.91999999999996" y="159.0" type="line"/>
      <point x="337.46000000000004" y="324.0" type="line"/>
      <point x="813.0600000000001" y="324.0" type="line"/>
      <point x="813.0600000000001" y="382.0" type="line"/>
      <point x="337.46000000000004" y="382.0" type="line"/>
      <point x="502.91999999999996" y="547.0" type="line"/>
    </contour>
  </outline>
</glyph>
<glyph name="product" format="2">
  <advance width="923.88"/>
  <unicode hex="220F"/>
  <outline>
    <contour>
      <point x="26.319999999999993" y="710.0" type="line"/>
      <point x="26.319999999999993" y="633.88" type="line"/>
      <point x="37.94" y="633.88" type="line" smooth="yes"/>
      <point x="67.8" y="633.88"/>
      <point x="89.03999999999999" y="626.88"/>
      <point x="89.03999999999999" y="597.88" type="curve" smooth="yes"/>
      <point x="89.03999999999999" y="-110.88000000000001" type="line" smooth="yes"/>
      <point x="89.03999999999999" y="-139.88"/>
      <point x="67.8" y="-146.88"/>
      <point x="37.94" y="-146.88" type="curve" smooth="yes"/>
      <point x="26.319999999999993" y="-146.88" type="line"/>
      <point x="26.319999999999993" y="-223.0" type="line"/>
      <point x="418.41999999999996" y="-223.0" type="line"/>
      <point x="418.41999999999996" y="-146.88" type="line"/>
      <point x="408.79999999999995" y="-146.88" type="line" smooth="yes"/>
      <point x="391.1" y="-146.88"/>
      <point x="368.8600000000001" y="-143.88"/>
      <point x="368.8600000000001" y="-136.88" type="curve" smooth="yes"/>
      <point x="368.8600000000001" y="623.88" type="line" smooth="yes"/>
      <point x="368.8600000000001" y="630.88"/>
      <point x="397.18000000000006" y="633.88"/>
      <point x="420.96" y="633.88" type="curve" smooth="yes"/>
      <point x="502.91999999999996" y="633.88" type="line" smooth="yes"/>
      <point x="526.7" y="633.88"/>
      <point x="555.02" y="630.88"/>
      <point x="555.02" y="623.88" type="curve" smooth="yes"/>
      <point x="555.02" y="-136.88" type="line" smooth="yes"/>
      <point x="555.02" y="-143.88"/>
      <point x="532.7800000000001" y="-146.88"/>
      <point x="515.08" y="-146.88" type="curve" smooth="yes"/>
      <point x="505.4600000000001" y="-146.88" type="line"/>
      <point x="505.4600000000001" y="-223.0" type="line"/>
      <point x="897.5600000000001" y="-223.0" type="line"/>
      <point x="897.5600000000001" y="-146.88" type="line"/>
      <point x="885.9399999999999" y="-146.88" type="line" smooth="yes"/>
      <point x="856.08" y="-146.88"/>
      <point x="834.8399999999999" y="-139.88"/>
      <point x="834.8399999999999" y="-110.88000000000001" type="curve" smooth="yes"/>
      <point x="834.8399999999999" y="597.88" type="line" smooth="yes"/>
      <point x="834.8399999999999" y="626.88"/>
      <point x="856.08" y="633.88"/>
      <point x="885.9399999999999" y="633.88" type="curve" smooth="yes"/>
      <point x="897.5600000000001" y="633.88" type="line"/>
      <point x="897.5600000000001" y="710.0" type="line"/>
    </contour>
  </outline>
</glyph>
<glyph name="Euro.proportional" format="2">
  <advance width="856.0799999999999"/>
  <outline>
    <contour>
      <point x="53.64" y="467.144" type="line"/>
      <point x="53.64" y="382.856" type="line"/>
      <point x="591.96" y="382.856" type="line"/>
      <point x="591.96" y="467.144" type="line"/>
    </contour>
    <contour>
      <point x="53.64" y="305.47999999999996" type="line"/>
      <point x="53.64" y="221.192" type="line"/>
      <point x="554.0200000000002" y="221.192" type="line"/>
      <point x="554.0200000000002" y="305.47999999999996" type="line"/>
    </contour>
    <contour>
      <point x="412.34000000000003" y="355.0" type="curve"/>
      <point x="412.34000000000003" y="520.9665358491549"/>
      <point x="451.81999999999994" y="628.88"/>
      <point x="553.0200000000002" y="628.88" type="curve" smooth="yes"/>
      <point x="612.2" y="628.88"/>
      <point x="646.6" y="600.552"/>
      <point x="681.54" y="540.0719999999999" type="curve"/>
      <point x="688.62" y="580.552"/>
      <point x="669.38" y="615.568"/>
      <point x="617.28" y="626.552" type="curve"/>
      <point x="617.28" y="513.3280000000001" type="line"/>
      <point x="815.5999999999999" y="513.3280000000001" type="line"/>
      <point x="815.5999999999999" y="657.168" type="line"/>
      <point x="788.28" y="676.84"/>
      <point x="685.08" y="720.0"/>
      <point x="538.8600000000001" y="720.0" type="curve" smooth="yes"/>
      <point x="285.35999999999996" y="720.0"/>
      <point x="118.9" y="582.8159999999999"/>
      <point x="118.9" y="355.0" type="curve"/>
      <point x="118.9" y="128.84799999999998"/>
      <point x="285.36" y="-10.0"/>
      <point x="518.6199999999999" y="-10.0" type="curve" smooth="yes"/>
      <point x="707.3199999999999" y="-10.0"/>
      <point x="795.3600000000001" y="90.16636972694074"/>
      <point x="828.7600000000001" y="217.512" type="curve"/>
      <point x="729.1" y="248.0" type="line"/>
      <point x="703.78" y="156.1434384035589"/>
      <point x="652.6800000000001" y="81.95199999999997"/>
      <point x="564.6399999999999" y="81.95199999999997" type="curve" smooth="yes"/>
      <point x="461.44000000000005" y="81.95199999999997"/>
      <point x="412.34000000000003" y="181.17818566033807"/>
    </contour>
  </outline>
</glyph>
<glyph name="acute.uc" format="2">
  <advance width="594.5"/>
  <anchor x="244.88" y="727.0" name="_top"/>
  <outline>
    <contour>
      <point x="273.74000000000007" y="869.176" type="curve" smooth="yes"/>
      <point x="223.64000000000001" y="788.0" type="line"/>
      <point x="223.64000000000001" y="757.68" type="line"/>
      <point x="305.6" y="757.68" type="line"/>
      <point x="387.5600000000001" y="783.376" type="line" smooth="yes"/>
      <point x="474.6" y="805.704"/>
      <point x="510.0" y="834.192"/>
      <point x="510.0" y="878.3280000000001" type="curve" smooth="yes"/>
      <point x="510.0" y="917.6320000000001"/>
      <point x="469.52" y="946.7840000000001"/>
      <point x="411.34000000000003" y="946.7840000000001" type="curve" smooth="yes"/>
      <point x="347.08000000000004" y="946.7840000000001"/>
      <point x="309.14" y="920.136"/>
    </contour>
  </outline>
</glyph>
<glyph name="bar.uc" format="2">
  <advance width="356.1600000000001"/>
  <outline>
    <contour>
      <point x="89.03999999999998" y="741.68" type="line"/>
      <point x="89.03999999999998" y="-35.008" type="line"/>
      <point x="267.65999999999997" y="-35.008" type="line"/>
      <point x="267.65999999999997" y="741.68" type="line"/>
    </contour>
  </outline>
</glyph>
<glyph name="breve_acute.uc" format="2">
  <advance width="606.6600000000001"/>
  <anchor x="297.52" y="744.0" name="_top"/>
  <outline>
    <contour>
      <point x="288.9" y="1032.488" type="curve" smooth="yes"/>
      <point x="243.88" y="957.968" type="line"/>
      <point x="243.88" y="930.976" type="line"/>
      <point x="317.21999999999997" y="930.976" type="line"/>
      <point x="391.1" y="955.008" type="line" smooth="yes"/>
      <point x="471.06000000000006" y="975.6719999999999"/>
      <point x="501.91999999999996" y="1003.3280000000001"/>
      <point x="501.91999999999996" y="1044.136" type="curve" smooth="yes"/>
      <point x="501.91999999999996" y="1080.112"/>
      <point x="467.52" y="1105.104"/>
      <point x="413.8800000000001" y="1105.104" type="curve" smooth="yes"/>
      <point x="356.7" y="1105.104"/>
      <point x="319.76000000000005" y="1080.12"/>
    </contour>
    <component base="breve.uc" xOffset="44.819999999999986"/>
  </outline>
</glyph>
<glyph name="breve_grave.uc" format="2">
  <advance width="606.6600000000001"/>
  <anchor x="297.52" y="744.0" name="_top"/>
  <outline>
    <contour>
      <point x="325.84000000000003" y="1032.488" type="curve" smooth="yes"/>
      <point x="370.86" y="957.968" type="line"/>
      <point x="370.86" y="930.976" type="line"/>
      <point x="297.52" y="930.976" type="line"/>
      <point x="223.64" y="955.008" type="line" smooth="yes"/>
      <point x="143.68000000000004" y="975.6719999999999"/>
      <point x="112.82000000000001" y="1003.3280000000001"/>
      <point x="112.82000000000001" y="1044.136" type="curve" smooth="yes"/>
      <point x="112.82000000000001" y="1080.112"/>
      <point x="147.22" y="1105.104"/>
      <point x="200.85999999999996" y="1105.104" type="curve" smooth="yes"/>
      <point x="258.04" y="1105.104"/>
      <point x="294.98" y="1080.12"/>
    </contour>
    <component base="breve.uc" xOffset="34.01999999999995"/>
  </outline>
</glyph>
<glyph name="circumflex_grave.uc" format="2">
  <advance width="606.1199999999999"/>
  <anchor x="291.44000000000005" y="696.0" name="_top"/>
  <outline>
    <contour>
      <point x="653.6800000000001" y="972.144" type="line" smooth="yes"/>
      <point x="621.8199999999999" y="1020.6080000000001"/>
      <point x="589.96" y="1047.9199999999998"/>
      <point x="530.24" y="1047.9199999999998" type="curve" smooth="yes"/>
      <point x="478.14" y="1047.9199999999998"/>
      <point x="443.74" y="1019.1039999999999"/>
      <point x="443.74" y="983.624" type="curve" smooth="yes"/>
      <point x="443.74" y="936.16"/>
      <point x="481.68000000000006" y="913.3280000000001"/>
      <point x="553.02" y="892.0" type="curve" smooth="yes"/>
      <point x="630.4399999999999" y="865.312" type="line"/>
      <point x="701.24" y="865.312" type="line"/>
      <point x="701.24" y="891.968" type="line"/>
    </contour>
    <component base="circumflex.uc" xOffset="59.94000000000001"/>
  </outline>
</glyph>
<glyph name="circumflex_hook" format="2">
  <advance width="606.1199999999999"/>
  <anchor x="291.44000000000005" y="559.0" name="_top"/>
  <outline>
    <contour>
      <point x="412.34000000000003" y="805.152" type="line"/>
      <point x="417.41999999999996" y="847.8163849184954"/>
      <point x="459.9" y="890.968"/>
      <point x="576.8" y="890.968" type="curve" smooth="yes"/>
      <point x="680.0" y="890.968"/>
      <point x="734.6399999999999" y="858.144"/>
      <point x="734.6399999999999" y="809.8159999999999" type="curve"/>
      <point x="734.6399999999999" y="754.488"/>
      <point x="676.46" y="730.8392492701637"/>
      <point x="588.4200000000002" y="724.992" type="curve"/>
      <point x="622.8199999999999" y="751.656" type="line"/>
      <point x="622.8199999999999" y="701.488" type="line"/>
      <point x="511.0" y="701.488" type="line"/>
      <point x="511.0" y="765.48" type="line"/>
      <point x="571.72" y="768.4883111213725"/>
      <point x="595.5" y="781.984"/>
      <point x="595.5" y="806.152" type="curve"/>
      <point x="595.5" y="821.992"/>
      <point x="587.42" y="831.4960000000001"/>
      <point x="566.1800000000001" y="831.4960000000001" type="curve" smooth="yes"/>
      <point x="546.94" y="831.4960000000001"/>
      <point x="535.32" y="821.6586502294772"/>
      <point x="531.24" y="805.152" type="curve"/>
    </contour>
    <component base="circumflex" xOffset="62.640000000000065"/>
  </outline>
</glyph>
<glyph name="circumflex_tilde" format="2">
  <advance width="594.5"/>
  <anchor x="291.44" y="551.0" name="_top"/>
  <outline>
    <contour>
      <point x="401.71999999999997" y="757.848" type="curve" smooth="yes"/>
      <point x="485.21999999999997" y="757.848"/>
      <point x="537.3199999999999" y="808.1471485926769"/>
      <point x="560.1" y="897.968" type="curve"/>
      <point x="451.81999999999994" y="927.448" type="line"/>
      <point x="441.20000000000005" y="894.44"/>
      <point x="428.04" y="877.76"/>
      <point x="401.71999999999997" y="877.76" type="curve" smooth="yes"/>
      <point x="352.1600000000001" y="877.76"/>
      <point x="319.76" y="926.112"/>
      <point x="231.72000000000003" y="926.112" type="curve" smooth="yes"/>
      <point x="140.14000000000001" y="926.112"/>
      <point x="99.66000000000001" y="877.9706578346812"/>
      <point x="78.42000000000002" y="786.656" type="curve"/>
      <point x="186.7" y="759.008" type="line"/>
      <point x="194.78000000000003" y="791.688"/>
      <point x="207.94000000000003" y="808.032"/>
      <point x="233.26" y="808.032" type="curve" smooth="yes"/>
      <point x="275.74" y="808.032"/>
      <point x="304.6" y="757.848"/>
    </contour>
    <contour>
      <point x="436.12000000000006" y="718.6719999999999" type="line"/>
      <point x="564.6399999999999" y="577.6719999999999" type="line"/>
      <point x="564.6399999999999" y="556.024" type="line"/>
      <point x="438.65999999999997" y="556.024" type="line"/>
      <point x="227.18" y="651.528" type="line"/>
      <point x="399.71999999999997" y="651.528" type="line"/>
      <point x="184.15999999999997" y="556.024" type="line"/>
      <point x="72.34" y="556.024" type="line"/>
      <point x="72.34" y="577.6719999999999" type="line"/>
      <point x="202.4" y="718.6719999999999" type="line"/>
    </contour>
  </outline>
</glyph>
<glyph name="dollar.altprop" format="2">
  <advance width="729.56"/>
  <outline>
    <contour>
      <point x="359.24" y="103.61600000000001" type="curve" smooth="yes"/>
      <point x="258.04" y="103.61600000000001"/>
      <point x="177.08000000000004" y="140.272"/>
      <point x="138.14000000000004" y="175.64" type="curve"/>
      <point x="123.42931056581308" y="172.11979930703"/>
      <point x="166.4048013207597" y="106.82265554694635"/>
      <point x="210.48" y="108.976" type="curve"/>
      <point x="210.48" y="218.336" type="line"/>
      <point x="29.860000000000003" y="218.336" type="line"/>
      <point x="29.860000000000003" y="85.016" type="line"/>
      <point x="81.95999999999998" y="50.168"/>
      <point x="197.32000000000002" y="12.0"/>
      <point x="363.78000000000003" y="12.0" type="curve" smooth="yes"/>
      <point x="574.2600000000001" y="12.0"/>
      <point x="700.2399999999999" y="89.824"/>
      <point x="700.2399999999999" y="239.616" type="curve" smooth="yes"/>
      <point x="700.2399999999999" y="368.944"/>
      <point x="583.8800000000001" y="421.432"/>
      <point x="393.64" y="464.24" type="curve" smooth="yes"/>
      <point x="315.1713952557001" y="483.80787515648285"/>
      <point x="248.42000000000002" y="493.6"/>
      <point x="248.42000000000002" y="546.976" type="curve" smooth="yes"/>
      <point x="248.42000000000002" y="587.0476942857143"/>
      <point x="287.9" y="607.2159999999999"/>
      <point x="368.31999999999994" y="607.2159999999999" type="curve" smooth="yes"/>
      <point x="444.7399999999999" y="607.2159999999999"/>
      <point x="506.46000000000004" y="590.68"/>
      <point x="551.48" y="555.68" type="curve"/>
      <point x="566.4530023848699" y="569.692208381464"/>
      <point x="544.4561950043362" y="620.6652985293842"/>
      <point x="498.38" y="617.6719999999999" type="curve"/>
      <point x="498.38" y="517.5039999999999" type="line"/>
      <point x="664.8399999999999" y="517.5039999999999" type="line"/>
      <point x="664.8399999999999" y="637.656" type="line"/>
      <point x="620.8199999999999" y="666.32"/>
      <point x="501.91999999999996" y="698.0"/>
      <point x="368.32" y="698.0" type="curve" smooth="yes"/>
      <point x="174.54000000000002" y="698.0"/>
      <point x="43.02000000000002" y="626.176"/>
      <point x="43.02000000000002" y="495.544" type="curve" smooth="yes"/>
      <point x="43.02000000000002" y="367.544"/>
      <point x="158.38" y="310.7783681099811"/>
      <point x="317.2199999999999" y="273.59200000000004" type="curve" smooth="yes"/>
      <point x="432.6393390001821" y="245.8719593103953"/>
      <point x="483.68000000000006" y="232.752"/>
      <point x="483.68000000000006" y="173.864" type="curve" smooth="yes"/>
      <point x="483.68000000000006" y="124.01055384615384"/>
      <point x="440.19999999999993" y="103.61600000000001"/>
    </contour>
    <contour>
      <point x="430.58000000000004" y="652.864" type="line"/>
      <point x="430.58000000000004" y="790.0" type="line"/>
      <point x="299.52" y="790.0" type="line"/>
      <point x="299.52" y="646.2080000000001" type="line"/>
    </contour>
    <contour>
      <point x="299.52" y="55.968" type="line"/>
      <point x="299.52" y="-120.0" type="line"/>
      <point x="430.58000000000004" y="-120.0" type="line"/>
      <point x="430.58000000000004" y="55.13600000000001" type="line"/>
    </contour>
  </outline>
</glyph>
<glyph name="f_f.short" format="2">
  <advance width="934.5"/>
  <outline>
    <contour>
      <point x="-3.552713678800501e-15" y="512.992" type="line"/>
      <point x="-3.552713678800501e-15" y="432.69599999999997" type="line"/>
      <point x="492.3" y="432.69599999999997" type="line"/>
      <point x="492.3" y="512.992" type="line"/>
    </contour>
    <contour>
      <point x="420.96" y="512.992" type="line"/>
      <point x="420.96" y="432.69599999999997" type="line"/>
      <point x="923.8799999999999" y="432.69599999999997" type="line"/>
      <point x="923.8799999999999" y="512.992" type="line"/>
    </contour>
    <contour>
      <point x="505.4600000000001" y="79.12799999999999" type="line"/>
      <point x="505.4600000000001" y="72.96000000000002"/>
      <point x="485.21999999999997" y="70.792"/>
      <point x="473.06000000000006" y="70.792" type="curve" smooth="yes"/>
      <point x="468.52" y="70.792" type="line"/>
      <point x="468.52" y="0.0" type="line"/>
      <point x="876.3199999999999" y="0.0" type="line"/>
      <point x="876.3199999999999" y="70.792" type="line"/>
      <point x="864.1600000000001" y="70.792" type="line" smooth="yes"/>
      <point x="833.3" y="70.792"/>
      <point x="795.3600000000001" y="72.96000000000002"/>
      <point x="795.3600000000001" y="79.12799999999999" type="curve" smooth="yes"/>
      <point x="795.3600000000001" y="572.664" type="line" smooth="yes"/>
      <point x="795.3600000000001" y="637.2239999999999"/>
      <point x="815.5999999999999" y="661.888"/>
      <point x="862.1600000000001" y="661.888" type="curve" smooth="yes"/>
      <point x="894.0200000000002" y="661.888"/>
      <point x="923.8800000000001" y="650.7280000000001"/>
      <point x="929.9600000000002" y="647.72" type="curve"/>
      <point x="929.9600000000002" y="735.344" type="line"/>
      <point x="913.2600000000001" y="740.512"/>
      <point x="868.2399999999999" y="747.84"/>
      <point x="811.0600000000002" y="747.84" type="curve" smooth="yes"/>
      <point x="641.0600000000002" y="747.84"/>
      <point x="505.4600000000001" y="695.856"/>
      <point x="505.4600000000001" y="543.544" type="curve"/>
    </contour>
    <contour>
      <point x="374.4" y="79.12799999999999" type="curve"/>
      <point x="374.4" y="575.304" type="line" smooth="yes"/>
      <point x="374.4" y="633.2080000000001"/>
      <point x="394.64" y="649.552"/>
      <point x="429.04" y="649.552" type="curve" smooth="yes"/>
      <point x="447.28" y="649.552"/>
      <point x="468.52" y="643.048"/>
      <point x="471.0600000000001" y="640.872" type="curve"/>
      <point x="471.0600000000001" y="724.6719999999999" type="line"/>
      <point x="455.3600000000001" y="730.6719999999999"/>
      <point x="412.34000000000003" y="737.168"/>
      <point x="361.24" y="737.168" type="curve" smooth="yes"/>
      <point x="211.48" y="737.168"/>
      <point x="84.49999999999999" y="685.1840000000001"/>
      <point x="84.49999999999999" y="532.872" type="curve" smooth="yes"/>
      <point x="84.49999999999999" y="101.8" type="line" smooth="yes"/>
      <point x="84.49999999999999" y="80.28800000000001"/>
      <point x="66.80000000000001" y="70.792"/>
      <point x="33.400000000000006" y="70.792" type="curve" smooth="yes"/>
      <point x="19.24" y="70.792" type="line"/>
      <point x="19.24" y="0.0" type="line"/>
      <point x="418.41999999999996" y="0.0" type="line"/>
      <point x="418.41999999999996" y="70.792" type="line"/>
      <point x="414.88000000000005" y="70.792" type="line" smooth="yes"/>
      <point x="388.56000000000006" y="70.792"/>
      <point x="374.4" y="72.96000000000002"/>
    </contour>
  </outline>
</glyph>
<glyph name="f_f_j" format="2">
  <advance width="1256.8"/>
  <outline>
    <contour>
      <point x="-3.552713678800501e-15" y="512.992" type="line"/>
      <point x="-3.552713678800501e-15" y="432.69599999999997" type="line"/>
      <point x="492.29999999999995" y="432.69599999999997" type="line"/>
      <point x="492.29999999999995" y="512.992" type="line"/>
    </contour>
    <contour>
      <point x="1069.1" y="566.584" type="curve" smooth="yes"/>
      <point x="1161.6799999999998" y="566.584"/>
      <point x="1216.3200000000002" y="600.4"/>
      <point x="1216.3200000000002" y="657.536" type="curve" smooth="yes"/>
      <point x="1216.3200000000002" y="714.5039999999999"/>
      <point x="1161.6799999999998" y="748.32"/>
      <point x="1069.1" y="748.32" type="curve" smooth="yes"/>
      <point x="974.9800000000001" y="748.32"/>
      <point x="921.3399999999999" y="714.5039999999999"/>
      <point x="921.3399999999999" y="657.536" type="curve" smooth="yes"/>
      <point x="921.3399999999999" y="599.568"/>
      <point x="974.9800000000001" y="566.584"/>
    </contour>
    <contour>
      <point x="420.96" y="512.992" type="line"/>
      <point x="420.96" y="432.69599999999997" type="line"/>
      <point x="923.8800000000001" y="432.69599999999997" type="line"/>
      <point x="923.8800000000001" y="512.992" type="line"/>
    </contour>
    <contour>
      <point x="926.4200000000002" y="-27.528" type="line" smooth="yes"/>
      <point x="926.4200000000002" y="-117.37599999999999"/>
      <point x="901.0999999999999" y="-146.544"/>
      <point x="849.0" y="-146.544" type="curve" smooth="yes"/>
      <point x="813.0600000000001" y="-146.544"/>
      <point x="784.74" y="-136.55200000000002"/>
      <point x="760.96" y="-128.888" type="curve"/>
      <point x="760.96" y="-221.008" type="line"/>
      <point x="778.6600000000001" y="-227.83999999999997"/>
      <point x="836.8399999999999" y="-236.0"/>
      <point x="907.1800000000001" y="-236.0" type="curve" smooth="yes"/>
      <point x="1121.2" y="-236.0"/>
      <point x="1216.3200000000002" y="-173.2"/>
      <point x="1216.3200000000002" y="-0.9040000000000106" type="curve" smooth="yes"/>
      <point x="1216.3200000000002" y="512.992" type="line"/>
      <point x="873.78" y="512.992" type="line"/>
      <point x="873.78" y="432.69599999999997" type="line"/>
      <point x="894.0200000000001" y="432.69599999999997" type="line" smooth="yes"/>
      <point x="919.3399999999999" y="432.69599999999997"/>
      <point x="926.4200000000002" y="421.688"/>
      <point x="926.4200000000002" y="403.504" type="curve" smooth="yes"/>
    </contour>
    <contour>
      <point x="374.4" y="79.12799999999999" type="curve"/>
      <point x="374.4" y="575.304" type="line" smooth="yes"/>
      <point x="374.4" y="633.2080000000001"/>
      <point x="394.64" y="649.552"/>
      <point x="429.04" y="649.552" type="curve" smooth="yes"/>
      <point x="447.28" y="649.552"/>
      <point x="468.52" y="643.048"/>
      <point x="471.0600000000001" y="640.872" type="curve"/>
      <point x="471.0600000000001" y="724.6719999999999" type="line"/>
      <point x="455.3600000000001" y="730.6719999999999"/>
      <point x="412.34000000000003" y="737.168"/>
      <point x="361.24" y="737.168" type="curve" smooth="yes"/>
      <point x="211.48" y="737.168"/>
      <point x="84.49999999999999" y="685.1840000000001"/>
      <point x="84.49999999999999" y="532.872" type="curve" smooth="yes"/>
      <point x="84.49999999999999" y="101.8" type="line" smooth="yes"/>
      <point x="84.49999999999999" y="80.28800000000001"/>
      <point x="66.80000000000001" y="70.792"/>
      <point x="33.400000000000006" y="70.792" type="curve" smooth="yes"/>
      <point x="19.24" y="70.792" type="line"/>
      <point x="19.24" y="0.0" type="line"/>
      <point x="418.41999999999996" y="0.0" type="line"/>
      <point x="418.41999999999996" y="70.792" type="line"/>
      <point x="414.88000000000005" y="70.792" type="line" smooth="yes"/>
      <point x="388.56000000000006" y="70.792"/>
      <point x="374.4" y="72.96000000000002"/>
    </contour>
    <contour>
      <point x="505.4600000000001" y="79.12799999999999" type="line"/>
      <point x="505.4600000000001" y="72.96000000000002"/>
      <point x="485.21999999999997" y="70.792"/>
      <point x="473.06000000000006" y="70.792" type="curve" smooth="yes"/>
      <point x="468.52" y="70.792" type="line"/>
      <point x="468.52" y="0.0" type="line"/>
      <point x="835.8399999999999" y="0.0" type="line"/>
      <point x="835.8399999999999" y="70.792" type="line"/>
      <point x="828.7600000000001" y="70.792" type="line" smooth="yes"/>
      <point x="813.0600000000002" y="70.792"/>
      <point x="795.3600000000001" y="72.96000000000002"/>
      <point x="795.3600000000001" y="79.12799999999999" type="curve" smooth="yes"/>
      <point x="795.3600000000001" y="585.976" type="line" smooth="yes"/>
      <point x="795.3600000000001" y="643.88"/>
      <point x="813.0600000000002" y="660.2239999999999"/>
      <point x="848.0" y="660.2239999999999" type="curve" smooth="yes"/>
      <point x="863.1600000000001" y="660.2239999999999"/>
      <point x="884.4000000000001" y="654.056"/>
      <point x="886.9399999999999" y="651.88" type="curve"/>
      <point x="886.9399999999999" y="735.344" type="line"/>
      <point x="871.78" y="741.344"/>
      <point x="831.3" y="747.84"/>
      <point x="780.2" y="747.84" type="curve" smooth="yes"/>
      <point x="629.9" y="747.84"/>
      <point x="505.4600000000001" y="695.856"/>
      <point x="505.4600000000001" y="543.544" type="curve"/>
    </contour>
  </outline>
</glyph>
<glyph name="f_k" format="2">
  <advance width="1311.4399999999998"/>
  <outline>
    <contour>
      <point x="1297.2799999999997" y="0.0" type="line"/>
      <point x="1297.2799999999997" y="70.79199999999999" type="line"/>
      <point x="1294.74" y="70.79199999999999" type="line"/>
      <point x="1263.8799999999997" y="70.79199999999999"/>
      <point x="1236.5600000000002" y="79.28800000000001"/>
      <point x="1219.8600000000001" y="102.96799999999999" type="curve" smooth="yes"/>
      <point x="1023.54" y="364.576" type="line"/>
      <point x="955.7399999999999" y="269.16" type="line"/>
      <point x="1135.3600000000001" y="402.352" type="line" smooth="yes"/>
      <point x="1162.6799999999998" y="424.704"/>
      <point x="1197.0799999999997" y="442.2"/>
      <point x="1243.6399999999999" y="442.2" type="curve"/>
      <point x="1246.1799999999998" y="442.2" type="line"/>
      <point x="1246.1799999999998" y="512.992" type="line"/>
      <point x="928.4200000000002" y="512.992" type="line"/>
      <point x="928.4200000000002" y="442.2" type="line"/>
      <point x="933.5" y="442.2" type="line"/>
      <point x="960.8199999999999" y="442.2"/>
      <point x="1012.9200000000002" y="439.2"/>
      <point x="1012.9200000000002" y="424.2" type="curve"/>
      <point x="820.6800000000001" y="279.656" type="line"/>
      <point x="820.6800000000001" y="250.528" type="line"/>
      <point x="917.8" y="79.12799999999999" type="line"/>
      <point x="917.8" y="72.96000000000001"/>
      <point x="897.56" y="70.79199999999999"/>
      <point x="885.9399999999998" y="70.79199999999999" type="curve"/>
      <point x="882.4000000000001" y="70.79199999999999" type="line"/>
      <point x="882.4000000000001" y="0.0" type="line"/>
    </contour>
    <contour>
      <point x="-3.552713678800501e-15" y="512.992" type="line"/>
      <point x="-3.552713678800501e-15" y="432.69599999999997" type="line"/>
      <point x="457.9" y="432.69599999999997" type="line"/>
      <point x="457.9" y="512.992" type="line"/>
    </contour>
    <contour>
      <point x="832.3" y="0.0" type="line"/>
      <point x="832.3" y="70.792" type="line"/>
      <point x="828.76" y="70.792" type="line" smooth="yes"/>
      <point x="816.5999999999999" y="70.792"/>
      <point x="796.9000000000001" y="72.96000000000002"/>
      <point x="796.9000000000001" y="79.12799999999999" type="curve"/>
      <point x="796.9000000000001" y="730.84" type="line"/>
      <point x="464.98" y="730.84" type="line"/>
      <point x="505.4600000000001" y="676.536" type="line"/>
      <point x="505.4600000000001" y="79.12799999999999" type="line"/>
      <point x="505.4600000000001" y="72.96000000000002"/>
      <point x="485.2199999999999" y="70.792"/>
      <point x="473.06000000000006" y="70.792" type="curve" smooth="yes"/>
      <point x="468.52" y="70.792" type="line"/>
      <point x="468.52" y="0.0" type="line"/>
    </contour>
    <contour>
      <point x="374.4" y="79.12799999999999" type="curve" smooth="yes"/>
      <point x="374.4" y="574.3280000000001" type="line" smooth="yes"/>
      <point x="374.4" y="637.2239999999999"/>
      <point x="399.7199999999999" y="660.2239999999999"/>
      <point x="450.81999999999994" y="660.2239999999999" type="curve" smooth="yes"/>
      <point x="502.91999999999996" y="660.2239999999999"/>
      <point x="537.3199999999999" y="634.904"/>
      <point x="560.0999999999999" y="573.912" type="curve"/>
      <point x="685.08" y="694.84" type="line"/>
      <point x="625.3600000000001" y="722.68"/>
      <point x="545.94" y="747.84"/>
      <point x="419.96000000000004" y="747.84" type="curve" smooth="yes"/>
      <point x="240.34000000000003" y="747.84"/>
      <point x="84.49999999999999" y="695.856"/>
      <point x="84.49999999999999" y="543.544" type="curve" smooth="yes"/>
      <point x="84.49999999999999" y="101.8" type="line"/>
      <point x="84.49999999999999" y="80.28800000000001"/>
      <point x="66.80000000000001" y="70.792"/>
      <point x="33.400000000000006" y="70.792" type="curve" smooth="yes"/>
      <point x="19.24" y="70.792" type="line"/>
      <point x="19.24" y="0.0" type="line"/>
      <point x="418.41999999999996" y="0.0" type="line"/>
      <point x="418.41999999999996" y="70.792" type="line"/>
      <point x="414.88" y="70.792" type="line" smooth="yes"/>
      <point x="388.56000000000006" y="70.792"/>
      <point x="374.4" y="72.96000000000002"/>
    </contour>
  </outline>
</glyph>
<glyph name="five.old" format="2">
  <advance width="665.8399999999999"/>
  <outline>
    <contour>
      <point x="329.38" y="-151.0" type="curve" smooth="yes"/>
      <point x="156.84" y="-151.0"/>
      <point x="64.26" y="-80.84"/>
      <point x="20.24000000000001" y="9.968" type="curve"/>
      <point x="133.06" y="64.944" type="line"/>
      <point x="158.38000000000005" y="11.943999999999988"/>
      <point x="204.4" y="-56.88799999999999"/>
      <point x="284.36" y="-56.88799999999999" type="curve" smooth="yes"/>
      <point x="356.7" y="-56.88799999999999"/>
      <point x="388.56000000000006" y="-4.695999999999998"/>
      <point x="388.56000000000006" y="90.99199999999999" type="curve" smooth="yes"/>
      <point x="388.56000000000006" y="172.024"/>
      <point x="360.24" y="217.544"/>
      <point x="297.5200000000001" y="217.544" type="curve" smooth="yes"/>
      <point x="243.88" y="217.544"/>
      <point x="215.02" y="191.216"/>
      <point x="196.32" y="146.55200000000002" type="curve"/>
      <point x="82.95999999999998" y="146.55200000000002" type="line"/>
      <point x="82.95999999999998" y="548.0" type="line"/>
      <point x="590.9600000000002" y="548.0" type="line"/>
      <point x="573.2600000000001" y="401.944" type="line"/>
      <point x="187.7" y="401.944" type="line"/>
      <point x="206.94000000000003" y="528.0" type="line"/>
      <point x="206.94000000000003" y="215.0" type="line"/>
      <point x="200.85999999999996" y="201.672"/>
      <point x="185.7" y="197.0"/>
      <point x="173.54000000000002" y="208.184" type="curve"/>
      <point x="214.01999999999998" y="263.016"/>
      <point x="267.65999999999997" y="305.0"/>
      <point x="391.1" y="305.0" type="curve" smooth="yes"/>
      <point x="560.1" y="305.0"/>
      <point x="653.6800000000001" y="211.32"/>
      <point x="653.6800000000001" y="90.16" type="curve" smooth="yes"/>
      <point x="653.6800000000001" y="-56.495999999999995"/>
      <point x="530.24" y="-151.0"/>
    </contour>
  </outline>
</glyph>
<glyph name="four.lin" format="2">
  <advance width="665.8399999999999"/>
  <outline>
    <contour>
      <point x="23.780000000000005" y="177.208" type="line"/>
      <point x="658.7600000000001" y="177.208" type="line"/>
      <point x="658.7600000000001" y="317.424" type="line"/>
      <point x="129.51999999999998" y="317.424" type="line"/>
      <point x="89.03999999999999" y="240.98399999999998" type="line"/>
      <point x="359.24" y="630.3919999999999" type="line"/>
      <point x="376.94000000000005" y="710.0" type="line"/>
      <point x="297.5199999999999" y="710.0" type="line"/>
      <point x="23.780000000000005" y="319.432" type="line"/>
    </contour>
    <contour>
      <point x="241.34000000000003" y="0.0" type="line"/>
      <point x="649.1399999999999" y="0.0" type="line"/>
      <point x="649.1399999999999" y="76.11999999999999" type="line"/>
      <point x="637.52" y="76.11999999999999" type="line" smooth="yes"/>
      <point x="607.6600000000001" y="76.11999999999999"/>
      <point x="586.4200000000002" y="83.11999999999999"/>
      <point x="586.4200000000002" y="112.11999999999999" type="curve" smooth="yes"/>
      <point x="586.4200000000002" y="710.0" type="line"/>
      <point x="335.46000000000004" y="710.0" type="line"/>
      <point x="316.21999999999997" y="620.744" type="line"/>
      <point x="316.21999999999997" y="112.11999999999999" type="line" smooth="yes"/>
      <point x="316.21999999999997" y="83.11999999999999"/>
      <point x="294.9800000000001" y="76.11999999999999"/>
      <point x="259.04" y="76.11999999999999" type="curve" smooth="yes"/>
      <point x="241.34000000000003" y="76.11999999999999" type="line"/>
    </contour>
  </outline>
</glyph>
<glyph name="lira.proportional" format="2">
  <advance width="749.3399999999999"/>
  <outline>
    <contour>
      <point x="501.91999999999996" y="-10.0" type="curve" smooth="yes"/>
      <point x="624.3600000000001" y="-10.0"/>
      <point x="696.7" y="72.672"/>
      <point x="729.0999999999999" y="176.49599999999998" type="curve"/>
      <point x="608.6600000000001" y="207.808" type="line"/>
      <point x="584.88" y="144.95199999999997"/>
      <point x="561.1" y="124.096"/>
      <point x="505.4600000000001" y="124.096" type="curve" smooth="yes"/>
      <point x="442.20000000000005" y="124.096"/>
      <point x="396.18000000000006" y="150.264"/>
      <point x="328.38" y="207.77599999999998" type="curve"/>
      <point x="284.35999999999996" y="197.94400000000002"/>
      <point x="235.26" y="154.808"/>
      <point x="237.8" y="131.816" type="curve"/>
      <point x="350.61999999999995" y="41.488"/>
      <point x="407.79999999999995" y="-10.0"/>
    </contour>
    <contour>
      <point x="21.240000000000002" y="475.12" type="line"/>
      <point x="21.240000000000002" y="395.66400000000004" type="line"/>
      <point x="562.6399999999999" y="395.66400000000004" type="line"/>
      <point x="562.6399999999999" y="475.12" type="line"/>
    </contour>
    <contour>
      <point x="21.240000000000002" y="326.10400000000004" type="line"/>
      <point x="21.240000000000002" y="246.648" type="line"/>
      <point x="562.6399999999999" y="246.648" type="line"/>
      <point x="562.6399999999999" y="326.10400000000004" type="line"/>
    </contour>
    <contour>
      <point x="432.58000000000004" y="630.544" type="curve" smooth="yes"/>
      <point x="462.44" y="630.544"/>
      <point x="483.68000000000006" y="618.3520000000001"/>
      <point x="499.38000000000005" y="594.176" type="curve"/>
      <point x="533.7800000000001" y="603.3599999999999"/>
      <point x="533.78" y="633.1840000000001"/>
      <point x="481.68000000000006" y="633.52" type="curve"/>
      <point x="481.68000000000006" y="536.512" type="line"/>
      <point x="687.08" y="536.512" type="line"/>
      <point x="687.08" y="664.656" type="line"/>
      <point x="635.98" y="693.152"/>
      <point x="542.4" y="719.664"/>
      <point x="412.34000000000003" y="719.664" type="curve" smooth="yes"/>
      <point x="193.78" y="719.664"/>
      <point x="78.42000000000002" y="633.176"/>
      <point x="78.42000000000002" y="526.984" type="curve" smooth="yes"/>
      <point x="78.42000000000002" y="401.008"/>
      <point x="192.78000000000003" y="339.496"/>
      <point x="192.78000000000003" y="231.98399999999998" type="curve" smooth="yes"/>
      <point x="192.78000000000003" y="164.296"/>
      <point x="141.19330598758" y="123.81959627064346"/>
      <point x="21.240000000000002" y="105.256" type="curve"/>
      <point x="21.240000000000002" y="-10.503999999999998" type="line"/>
      <point x="282.8505421757399" y="14.207323999555953"/>
      <point x="407.79999999999995" y="136.8"/>
      <point x="407.79999999999995" y="260.296" type="curve" smooth="yes"/>
      <point x="407.79999999999995" y="380.12"/>
      <point x="360.24" y="457.424"/>
      <point x="360.24" y="541.136" type="curve" smooth="yes"/>
      <point x="360.24" y="598.3520000000001"/>
      <point x="384.02" y="630.544"/>
    </contour>
  </outline>
</glyph>
<glyph name="liraTurkish.proportional" format="2">
  <advance width="801.4399999999998"/>
  <outline>
    <contour>
      <point x="39.480000000000004" y="398.84" type="line"/>
      <point x="39.480000000000004" y="313.56" type="line"/>
      <point x="529.24" y="491.576" type="line"/>
      <point x="529.24" y="576.856" type="line"/>
    </contour>
    <contour>
      <point x="39.480000000000004" y="246.32" type="line"/>
      <point x="39.480000000000004" y="161.04" type="line"/>
      <point x="529.24" y="339.056" type="line"/>
      <point x="529.24" y="424.33599999999996" type="line"/>
    </contour>
    <contour>
      <point x="412.3399999999999" y="86.95200000000001" type="curve" smooth="yes"/>
      <point x="375.94" y="86.95200000000001" type="line"/>
      <point x="375.94" y="597.88" type="line" smooth="yes"/>
      <point x="375.94" y="626.88"/>
      <point x="398.18000000000006" y="633.88"/>
      <point x="430.58000000000004" y="633.88" type="curve" smooth="yes"/>
      <point x="449.28000000000003" y="633.88" type="line"/>
      <point x="449.28000000000003" y="710.0" type="line"/>
      <point x="39.480000000000004" y="710.0" type="line"/>
      <point x="39.480000000000004" y="633.88" type="line"/>
      <point x="51.1" y="633.88" type="line" smooth="yes"/>
      <point x="80.96000000000001" y="633.88"/>
      <point x="102.20000000000002" y="626.88"/>
      <point x="102.20000000000002" y="597.88" type="curve" smooth="yes"/>
      <point x="102.20000000000002" y="112.11999999999999" type="line" smooth="yes"/>
      <point x="102.20000000000002" y="83.11999999999999"/>
      <point x="80.96000000000001" y="76.11999999999999"/>
      <point x="51.1" y="76.11999999999999" type="curve" smooth="yes"/>
      <point x="39.480000000000004" y="76.11999999999999" type="line"/>
      <point x="39.480000000000004" y="0.0" type="line"/>
      <point x="374.4" y="0.0" type="line" smooth="yes"/>
      <point x="659.7600000000001" y="0.0"/>
      <point x="756.4200000000002" y="109.31200000000001"/>
      <point x="775.1199999999999" y="274.344" type="curve"/>
      <point x="595.5" y="309.82399999999996" type="line"/>
      <point x="583.88" y="207.56"/>
      <point x="555.02" y="86.95200000000001"/>
    </contour>
  </outline>
</glyph>
<glyph name="one.lin" format="2">
  <advance width="665.8399999999999"/>
  <outline>
    <contour>
      <point x="515.0800000000002" y="120.43999999999998" type="curve" smooth="yes"/>
      <point x="515.0800000000002" y="710.0" type="line"/>
      <point x="274.74" y="710.0" type="line"/>
      <point x="234.26000000000008" y="661.4960000000001"/>
      <point x="182.15999999999997" y="634.336"/>
      <point x="47.56000000000001" y="633.168" type="curve"/>
      <point x="47.56000000000001" y="515.76" type="line"/>
      <point x="159.38" y="514.592"/>
      <point x="225.64000000000004" y="539.768"/>
      <point x="259.04" y="622.376" type="curve"/>
      <point x="244.88" y="634.544"/>
      <point x="250.95999999999995" y="624.2239999999999"/>
      <point x="234.25999999999996" y="614.704" type="curve"/>
      <point x="234.25999999999996" y="120.43999999999998" type="line" smooth="yes"/>
      <point x="234.25999999999996" y="83.11999999999999"/>
      <point x="174.54000000000005" y="76.11999999999999"/>
      <point x="105.73999999999998" y="76.11999999999999" type="curve" smooth="yes"/>
      <point x="71.34" y="76.11999999999999" type="line"/>
      <point x="71.34" y="0.0" type="line"/>
      <point x="662.3" y="0.0" type="line"/>
      <point x="662.3" y="76.11999999999999" type="line"/>
      <point x="643.0600000000002" y="76.11999999999999" type="line" smooth="yes"/>
      <point x="568.1800000000001" y="76.11999999999999"/>
      <point x="515.0800000000002" y="83.11999999999999"/>
    </contour>
  </outline>
</glyph>
<glyph name="parenleft.uc" format="2">
  <advance width="463.98"/>
  <outline>
    <contour>
      <point x="277.28000000000003" y="356.67999999999995" type="curve" smooth="yes"/>
      <point x="277.28000000000003" y="158.0"/>
      <point x="370.3306912217523" y="35.30515290291976"/>
      <point x="451.81999999999994" y="-32.008" type="curve"/>
      <point x="451.81999999999994" y="-35.008" type="line"/>
      <point x="285.35999999999996" y="-35.008" type="line"/>
      <point x="153.3" y="29.84"/>
      <point x="35.4" y="161.328"/>
      <point x="35.4" y="356.67999999999995" type="curve" smooth="yes"/>
      <point x="35.4" y="544.6719999999999"/>
      <point x="153.3" y="676.3280000000001"/>
      <point x="285.35999999999996" y="741.68" type="curve"/>
      <point x="451.81999999999994" y="741.68" type="line"/>
      <point x="451.81999999999994" y="738.68" type="line"/>
      <point x="370.3306912217523" y="670.8628470970802"/>
      <point x="277.28000000000003" y="548.168"/>
    </contour>
  </outline>
</glyph>
<glyph name="plus.sup" format="2">
  <advance width="487.76"/>
  <outline>
    <contour>
      <point x="180.62" y="674.912" type="line"/>
      <point x="180.62" y="364.912" type="line"/>
      <point x="306.6" y="364.912" type="line"/>
      <point x="306.6" y="674.912" type="line"/>
    </contour>
    <contour>
      <point x="421.9600000000001" y="564.712" type="line"/>
      <point x="65.26" y="564.712" type="line"/>
      <point x="65.26" y="475.11199999999997" type="line"/>
      <point x="421.9600000000001" y="475.11199999999997" type="line"/>
    </contour>
  </outline>
</glyph>
<glyph name="ringhalfleft" format="2">
  <advance width="594.5"/>
  <anchor x="297.52" y="566.0" name="_top"/>
  <outline>
    <contour>
      <point x="297.52" y="616.984" type="line"/>
      <point x="273.20000000000005" y="616.984"/>
      <point x="255.5" y="632.16"/>
      <point x="255.5" y="663.344" type="curve" smooth="yes"/>
      <point x="255.5" y="695.3599999999999"/>
      <point x="274.74" y="709.704"/>
      <point x="297.52" y="709.704" type="curve"/>
      <point x="297.52" y="772.16" type="line"/>
      <point x="196.32" y="772.16"/>
      <point x="122.44000000000003" y="736.16"/>
      <point x="122.44000000000003" y="663.344" type="curve" smooth="yes"/>
      <point x="122.44000000000003" y="590.528"/>
      <point x="196.32" y="554.528"/>
      <point x="297.52" y="554.528" type="curve"/>
    </contour>
  </outline>
</glyph>
<glyph name="ruble.proportional" format="2">
  <advance width="733.6399999999999"/>
  <outline>
    <contour>
      <point x="26.320000000000007" y="379.17600000000004" type="line"/>
      <point x="369.85999999999996" y="379.17600000000004" type="line" smooth="yes"/>
      <point x="423.5" y="379.17600000000004"/>
      <point x="465.98" y="421.69599999999997"/>
      <point x="465.98" y="508.024" type="curve" smooth="yes"/>
      <point x="465.98" y="589.024"/>
      <point x="423.5" y="623.048"/>
      <point x="375.94000000000005" y="623.048" type="curve" smooth="yes"/>
      <point x="354.15999999999997" y="623.048" type="line"/>
      <point x="354.15999999999997" y="86.11999999999999" type="line" smooth="yes"/>
      <point x="354.15999999999997" y="79.11999999999999"/>
      <point x="380.48" y="76.11999999999999"/>
      <point x="401.7199999999999" y="76.11999999999999" type="curve" smooth="yes"/>
      <point x="430.58000000000004" y="76.11999999999999" type="line"/>
      <point x="430.58000000000004" y="0.0" type="line"/>
      <point x="26.320000000000007" y="0.0" type="line"/>
      <point x="26.320000000000007" y="76.11999999999999" type="line"/>
      <point x="37.94" y="76.11999999999999" type="line" smooth="yes"/>
      <point x="67.80000000000001" y="76.11999999999999"/>
      <point x="89.04" y="83.11999999999999"/>
      <point x="89.04" y="112.11999999999999" type="curve" smooth="yes"/>
      <point x="89.04" y="597.88" type="line" smooth="yes"/>
      <point x="89.04" y="626.88"/>
      <point x="67.80000000000001" y="633.88"/>
      <point x="37.94" y="633.88" type="curve" smooth="yes"/>
      <point x="26.320000000000007" y="633.88" type="line"/>
      <point x="26.320000000000007" y="710.0" type="line"/>
      <point x="387.56000000000006" y="710.0" type="line" smooth="yes"/>
      <point x="593.5" y="710.0"/>
      <point x="721.48" y="639.4960000000001"/>
      <point x="721.48" y="512.352" type="curve" smooth="yes"/>
      <point x="721.48" y="380.384"/>
      <point x="584.8800000000001" y="301.384"/>
      <point x="386.55999999999995" y="301.384" type="curve" smooth="yes"/>
      <point x="26.320000000000007" y="301.384" type="line"/>
    </contour>
    <contour>
      <point x="486.2199999999999" y="164.68800000000002" type="line"/>
      <point x="26.320000000000007" y="164.68800000000002" type="line"/>
      <point x="26.320000000000007" y="242.48000000000002" type="line"/>
      <point x="486.2199999999999" y="242.48000000000002" type="line"/>
    </contour>
  </outline>
</glyph>
<glyph name="rupeeIndian.proportional" format="2">
  <advance width="714.9399999999998"/>
  <outline>
    <contour>
      <point x="57.17999999999999" y="518.5039999999999" type="line"/>
      <point x="57.17999999999999" y="428.232" type="line"/>
      <point x="679.0" y="428.232" type="line"/>
      <point x="679.0" y="518.5039999999999" type="line"/>
    </contour>
    <contour>
      <point x="147.22" y="258.03999999999996" type="line"/>
      <point x="190.24" y="258.03999999999996" type="line" smooth="yes"/>
      <point x="420.96000000000004" y="258.03999999999996"/>
      <point x="570.72" y="341.048"/>
      <point x="570.72" y="454.904" type="curve" smooth="yes"/>
      <point x="570.72" y="565.3679999999999"/>
      <point x="500.38" y="636.3599999999999"/>
      <point x="273.2" y="644.88" type="curve"/>
      <point x="251.95999999999998" y="682.344"/>
      <point x="128.52" y="690.176"/>
      <point x="242.34000000000003" y="621.3919999999999" type="curve"/>
      <point x="679.0" y="621.3919999999999" type="line"/>
      <point x="679.0" y="710.0" type="line"/>
      <point x="57.17999999999999" y="710.0" type="line"/>
      <point x="57.17999999999999" y="617.2239999999999" type="line"/>
      <point x="145.22000000000003" y="617.2239999999999" type="line" smooth="yes"/>
      <point x="278.2800000000001" y="617.2239999999999"/>
      <point x="317.21999999999997" y="563.2159999999999"/>
      <point x="317.21999999999997" y="473.208" type="curve" smooth="yes"/>
      <point x="317.21999999999997" y="385.024"/>
      <point x="280.81999999999994" y="329.344"/>
      <point x="133.06" y="329.344" type="curve" smooth="yes"/>
      <point x="57.17999999999999" y="329.344" type="line"/>
      <point x="57.17999999999999" y="252.4" type="line"/>
      <point x="332.91999999999996" y="0.0" type="line"/>
      <point x="649.14" y="0.0" type="line"/>
      <point x="649.14" y="74.45599999999999" type="line"/>
      <point x="634.9800000000001" y="74.45599999999999" type="line" smooth="yes"/>
      <point x="601.5800000000002" y="74.45599999999999"/>
      <point x="582.8800000000001" y="82.45599999999999"/>
      <point x="557.5600000000001" y="102.45599999999999" type="curve" smooth="yes"/>
      <point x="323.29999999999995" y="303.192" type="line"/>
    </contour>
  </outline>
</glyph>
<glyph name="zero.lin" format="2">
  <advance width="665.8399999999999"/>
  <outline>
    <contour>
      <point x="332.91999999999996" y="-10.831999999999999" type="curve" smooth="yes"/>
      <point x="519.99933823466" y="-10.831999999999999"/>
      <point x="652.6800000000001" y="128.184"/>
      <point x="652.6800000000001" y="354.168" type="curve" smooth="yes"/>
      <point x="652.6800000000001" y="581.984"/>
      <point x="519.99933823466" y="720.0"/>
      <point x="332.91999999999996" y="720.0" type="curve" smooth="yes"/>
      <point x="145.84066176534003" y="720.0"/>
      <point x="13.160000000000004" y="581.984"/>
      <point x="13.160000000000004" y="354.168" type="curve" smooth="yes"/>
      <point x="13.160000000000004" y="128.184"/>
      <point x="145.84066176534003" y="-10.831999999999999"/>
    </contour>
    <contour>
      <point x="332.91999999999996" y="78.28800000000001" type="curve" smooth="yes"/>
      <point x="295.672" y="78.28800000000001"/>
      <point x="286.35999999999996" y="132.22400000000002"/>
      <point x="286.35999999999996" y="354.168" type="curve" smooth="yes"/>
      <point x="286.35999999999996" y="579.44"/>
      <point x="295.672" y="630.88"/>
      <point x="332.91999999999996" y="630.88" type="curve" smooth="yes"/>
      <point x="370.85999999999996" y="630.88"/>
      <point x="379.4800000000001" y="579.44"/>
      <point x="379.4800000000001" y="354.168" type="curve" smooth="yes"/>
      <point x="379.4800000000001" y="132.22400000000002"/>
      <point x="370.16799999999995" y="78.28800000000001"/>
    </contour>
  </outline>
</glyph>
